<svg width="822" height="479" viewBox="0 0 822 479"><defs><clipPath id="clip0"><rect x="1117" y="464" width="822" height="479"/></clipPath></defs><g clip-path="url(#clip0)" transform="translate(-1117 -464)"><path d="M1296 703.5C1296 578.96 1400.09 478 1528.5 478 1656.91 478 1761 578.96 1761 703.5 1761 828.04 1656.91 929 1528.5 929 1400.09 929 1296 828.04 1296 703.5Z" stroke="#767171" stroke-width="27.5" stroke-miterlimit="8" fill="none" fill-rule="evenodd"/><path d="M1528 572 1894 693 1528 814 1162 693Z" fill="#FFFFFF" fill-rule="evenodd"/><path d="M1528 572 1528 814" stroke="#404040" stroke-width="27.5" stroke-miterlimit="8" fill="none" fill-rule="evenodd"/><path d="M1528 572 1894 693 1528 814 1162 693Z" stroke="#404040" stroke-width="27.5" stroke-miterlimit="8" fill="none" fill-rule="evenodd"/><path d="M1523 580 1523 805 1183 692.5Z" fill="#D0CECE" fill-rule="evenodd"/><path d="M1437 693C1437 645.504 1476.62 607 1525.5 607 1574.38 607 1614 645.504 1614 693 1614 740.496 1574.38 779 1525.5 779 1476.62 779 1437 740.496 1437 693Z" stroke="#404040" stroke-width="27.5" stroke-miterlimit="8" fill="none" fill-rule="evenodd"/></g></svg>