<svg width="1064" height="1032" viewBox="0 0 1064 1032"><defs><clipPath id="clip0"><rect x="996" y="379" width="1064" height="1032"/></clipPath></defs><g clip-path="url(#clip0)" transform="translate(-996 -379)"><path d="M1893.69 1249.29 1652 897" stroke="#767171" stroke-width="13.75" stroke-miterlimit="8" fill="none" fill-rule="evenodd"/><path d="M1010 895C1010 617.753 1241.92 393 1528 393 1814.08 393 2046 617.753 2046 895 2046 1172.25 1814.08 1397 1528 1397 1241.92 1397 1010 1172.25 1010 895Z" stroke="#767171" stroke-width="27.5" stroke-miterlimit="8" fill="none" fill-rule="evenodd"/><path d="M1296 703.5C1296 578.96 1400.09 478 1528.5 478 1656.91 478 1761 578.96 1761 703.5 1761 828.04 1656.91 929 1528.5 929 1400.09 929 1296 828.04 1296 703.5Z" stroke="#767171" stroke-width="27.5" stroke-miterlimit="8" fill="none" fill-rule="evenodd"/><path d="M0 0 248.988 341.047" stroke="#767171" stroke-width="13.75" stroke-miterlimit="8" fill="none" fill-rule="evenodd" transform="matrix(1 0 0 -1 1162 1250.05)"/><path d="M0 0 101.611 0.379659" stroke="#767171" stroke-width="13.75" stroke-miterlimit="8" fill="none" fill-rule="evenodd" transform="matrix(1 0 0 -1 1060 693.38)"/><path d="M1894 693 1998.12 693.379" stroke="#767171" stroke-width="13.75" stroke-miterlimit="8" fill="none" fill-rule="evenodd"/><path d="M1528 572 1894 693 1528 814 1162 693Z" fill="#FFFFFF" fill-rule="evenodd"/><path d="M1528 572 1528 814" stroke="#404040" stroke-width="27.5" stroke-miterlimit="8" fill="none" fill-rule="evenodd"/><path d="M1528 572 1894 693 1528 814 1162 693Z" stroke="#404040" stroke-width="27.5" stroke-miterlimit="8" fill="none" fill-rule="evenodd"/><path d="M1523.5 580.5 1523.5 805.5 1183.5 693Z" stroke="#2F528F" stroke-width="4.58333" stroke-miterlimit="8" fill="#D0CECE" fill-rule="evenodd"/><path d="M1437 693C1437 645.504 1476.62 607 1525.5 607 1574.38 607 1614 645.504 1614 693 1614 740.496 1574.38 779 1525.5 779 1476.62 779 1437 740.496 1437 693Z" stroke="#404040" stroke-width="27.5" stroke-miterlimit="8" fill="none" fill-rule="evenodd"/></g></svg>