<svg width="692" height="811" viewBox="0 0 692 811" xmlns="http://www.w3.org/2000/svg" xmlns:xlink="http://www.w3.org/1999/xlink" overflow="hidden"><defs><clipPath id="clip0"><rect x="3254" y="568" width="692" height="811"/></clipPath><clipPath id="clip1"><rect x="3257" y="568" width="689" height="809"/></clipPath><clipPath id="clip2"><rect x="3257" y="568" width="689" height="809"/></clipPath><clipPath id="clip3"><rect x="3257" y="568" width="689" height="809"/></clipPath><clipPath id="clip4"><rect x="3257" y="568" width="689" height="809"/></clipPath><clipPath id="clip5"><rect x="3257" y="568" width="689" height="809"/></clipPath><clipPath id="clip6"><rect x="3257" y="568" width="689" height="809"/></clipPath></defs><g clip-path="url(#clip0)" transform="translate(-3254 -568)"><g clip-path="url(#clip1)"><g clip-path="url(#clip2)"><g clip-path="url(#clip3)"><path d="M244.021 638.76 322.969 373.208 200.958 373.208 261.389 51.9621 441.965 51.9621 366.031 287.083 488.042 287.083 244.021 638.76Z" stroke="#767171" stroke-width="6.89" stroke-linecap="butt" stroke-linejoin="miter" stroke-miterlimit="4" stroke-opacity="1" fill="none" fill-rule="nonzero" transform="matrix(1 0 0 1.17126 3257 569)"/></g></g></g><g clip-path="url(#clip4)"><g clip-path="url(#clip5)"><g clip-path="url(#clip6)"><path d="M244.021 638.76 322.969 373.208 200.958 373.208 261.389 51.9621 441.965 51.9621 366.031 287.083 488.042 287.083 244.021 638.76Z" fill="#FFFFFF" fill-rule="nonzero" fill-opacity="1" transform="matrix(1 0 0 1.17126 3257 569)"/></g></g></g></g></svg>