<svg xmlns="http://www.w3.org/2000/svg" viewBox="0 0 1138.15 450.7"><defs><style>.cls-1{fill:#0094a3;}.cls-2{fill:#ff4484;}.cls-3{fill:#494949;}</style></defs><g id="Layer_2" data-name="Layer 2"><g id="图层_1" data-name="图层 1"><path class="cls-1" d="M298,76.7,173.81.24a1.58,1.58,0,0,0-2.06,2.35L211.55,51a264.78,264.78,0,0,0-33.37,3.9,252.84,252.84,0,0,0-35,9,240.63,240.63,0,0,0-33,13.92,228.15,228.15,0,0,0-30.5,18.8,211.65,211.65,0,0,0-29,25.52,191.39,191.39,0,0,0-23,29.72,176.94,176.94,0,0,0-16.34,33.49,171.91,171.91,0,0,0-8.9,36.76L0,241a1.58,1.58,0,0,0,2.39,1.55l78.95-47.9a1.55,1.55,0,0,0,.69-.86l1-3.16a144.94,144.94,0,0,1,26.41-47.86,170.35,170.35,0,0,1,41.5-36,197,197,0,0,1,52.18-22.67,214.65,214.65,0,0,1,59.32-7.55c2.86,0,5.77.12,8.63.27s5.76.34,8.62.6,5.75.57,8.6.93,5.71.78,8.54,1.25A1.58,1.58,0,0,0,298,76.7Z"/><path class="cls-2" d="M347.83,177.83l-1-18.05a1.57,1.57,0,0,0-2.44-1.22l-71.16,47.15a1.59,1.59,0,0,0-.67,1L271.9,210a143.74,143.74,0,0,1-22.58,52.27,174.6,174.6,0,0,1-42.61,43,205,205,0,0,1-58.31,28.88,217.41,217.41,0,0,1-68.28,9.93c-3.3-.05-6.63-.17-9.89-.36s-6.58-.47-9.83-.8-6.51-.76-9.73-1.24-6.42-1.05-9.6-1.68a1.57,1.57,0,0,0-1.3,2.76L171.15,450.34a1.56,1.56,0,0,0,1,.36,1.57,1.57,0,0,0,1.39-2.3l-36.87-70.52a264.64,264.64,0,0,0,40.57-5.5A251.89,251.89,0,0,0,217.75,360a238.29,238.29,0,0,0,36.9-18.61,223.94,223.94,0,0,0,32.27-24.25,202,202,0,0,0,28.2-31.37,179.78,179.78,0,0,0,19.59-34.43A166.93,166.93,0,0,0,345.6,215,161.79,161.79,0,0,0,347.83,177.83Z"/><path class="cls-3" d="M258.56,209.79,196.9,181.24l61.42-95.48a1.63,1.63,0,0,0-2.23-2.26L101.25,179.84a1.63,1.63,0,0,0,.15,2.85l60.26,29.12-90.33,122a1.62,1.62,0,0,0,.13,2.09,1.61,1.61,0,0,0,2.08.23L258.78,212.63a1.63,1.63,0,0,0-.22-2.84Z"/><path class="cls-3" d="M451.86,199a36.65,36.65,0,0,0-12.3,10.44,32.45,32.45,0,0,0-6.35,14.49l-4.09,24.49h104.4l-4,24H425.12l-8.88,53.25H380.3l3-17.79,14-84a60.16,60.16,0,0,1,11.49-26.51,67.11,67.11,0,0,1,22.41-19.21,58.32,58.32,0,0,1,27.69-7.07H546.4l-4,24H466.76A31.61,31.61,0,0,0,451.86,199Z"/><path class="cls-3" d="M772.68,325.65,742.8,208.39l-46.3,78L757,289.07,637.67,325.65,729,171.09h39.76l39.83,154.56Z"/><path class="cls-3" d="M643.32,301.39H597.81q-11.91,0-18.91-8.43t-5-20.33l16.93-101.54H554.61L537.69,272.63q-2.4,14.39,2.65,26.51a41.65,41.65,0,0,0,16.11,19.32,45.55,45.55,0,0,0,25.42,7.19H629Z"/><path class="cls-3" d="M975.05,170.86h36.17l-25.8,154.79H949.25L966,225l-37.44,45.37H892.87l-23.7-46.5-17,101.77H816l25.8-154.79H878l37.1,72.57Z"/><path class="cls-3" d="M1138.15,301.39h-75.68q-11.91,0-18.92-8.43t-5-20.33l16.92-101.54h-36.17l-16.93,101.54Q1000,287,1005,299.14a41.69,41.69,0,0,0,16.1,19.32,45.57,45.57,0,0,0,25.42,7.19h77.29Z"/></g></g></svg>