<?xml version="1.0" encoding="UTF-8" standalone="no"?><svg xmlns="http://www.w3.org/2000/svg" xmlns:xlink="http://www.w3.org/1999/xlink" contentScriptType="application/ecmascript" contentStyleType="text/css" height="1665px" preserveAspectRatio="none" style="width:1282px;height:1665px;" version="1.1" viewBox="0 0 1282 1665" width="1282px" zoomAndPan="magnify"><defs><filter height="300%" id="f1j8snajah258z" width="300%" x="-1" y="-1"><feGaussianBlur result="blurOut" stdDeviation="2.0"/><feColorMatrix in="blurOut" result="blurOut2" type="matrix" values="0 0 0 0 0 0 0 0 0 0 0 0 0 0 0 0 0 0 .4 0"/><feOffset dx="4.0" dy="4.0" in="blurOut2" result="blurOut3"/><feBlend in="SourceGraphic" in2="blurOut3" mode="normal"/></filter></defs><g><text fill="#000000" font-family="sans-serif" font-size="18" lengthAdjust="spacing" textLength="206" x="538.25" y="30.6855">Tweet Sentiment Training</text><rect fill="#5FAEB6" filter="url(#f1j8snajah258z)" height="1528.7656" style="stroke:#3F6184;stroke-width:1.0;" width="10" x="28.5" y="112.0371"/><rect fill="#5FAEB6" filter="url(#f1j8snajah258z)" height="60.7031" style="stroke:#3F6184;stroke-width:1.0;" width="10" x="163.5" y="150.7402"/><rect fill="#5FAEB6" filter="url(#f1j8snajah258z)" height="94.4063" style="stroke:#3F6184;stroke-width:1.0;" width="10" x="279" y="241.7949"/><rect fill="#5FAEB6" filter="url(#f1j8snajah258z)" height="61.7031" style="stroke:#3F6184;stroke-width:1.0;" width="10" x="279" y="1579.0996"/><rect fill="#5FAEB6" filter="url(#f1j8snajah258z)" height="30.3516" style="stroke:#3F6184;stroke-width:1.0;" width="10" x="414.5" y="366.5527"/><rect fill="#5FAEB6" filter="url(#f1j8snajah258z)" height="225.1094" style="stroke:#3F6184;stroke-width:1.0;" width="10" x="550" y="443.6074"/><rect fill="#5FAEB6" filter="url(#f1j8snajah258z)" height="28" style="stroke:#3F6184;stroke-width:1.0;" width="10" x="555" y="542.6621"/><rect fill="#5FAEB6" filter="url(#f1j8snajah258z)" height="30" style="stroke:#3F6184;stroke-width:1.0;" width="10" x="550" y="883.5293"/><rect fill="#5FAEB6" filter="url(#f1j8snajah258z)" height="30.3516" style="stroke:#3F6184;stroke-width:1.0;" width="10" x="550" y="943.8809"/><rect fill="#5FAEB6" filter="url(#f1j8snajah258z)" height="30" style="stroke:#3F6184;stroke-width:1.0;" width="10" x="550" y="1354.6934"/><rect fill="#5FAEB6" filter="url(#f1j8snajah258z)" height="61.7031" style="stroke:#3F6184;stroke-width:1.0;" width="10" x="550" y="1579.0996"/><rect fill="#5FAEB6" filter="url(#f1j8snajah258z)" height="30.3516" style="stroke:#3F6184;stroke-width:1.0;" width="10" x="676" y="473.959"/><rect fill="#5FAEB6" filter="url(#f1j8snajah258z)" height="61.7031" style="stroke:#3F6184;stroke-width:1.0;" width="10" x="676" y="1579.0996"/><rect fill="#5FAEB6" filter="url(#f1j8snajah258z)" height="30.3516" style="stroke:#3F6184;stroke-width:1.0;" width="10" x="764" y="608.0137"/><rect fill="#5FAEB6" filter="url(#f1j8snajah258z)" height="61.7031" style="stroke:#3F6184;stroke-width:1.0;" width="10" x="764" y="1579.0996"/><rect fill="#5FAEB6" filter="url(#f1j8snajah258z)" height="30.3516" style="stroke:#3F6184;stroke-width:1.0;" width="10" x="858.5" y="699.0684"/><rect fill="#5FAEB6" filter="url(#f1j8snajah258z)" height="30.3516" style="stroke:#3F6184;stroke-width:1.0;" width="10" x="961.5" y="759.7715"/><rect fill="#5FAEB6" filter="url(#f1j8snajah258z)" height="30" style="stroke:#3F6184;stroke-width:1.0;" width="10" x="961.5" y="1082.9355"/><rect fill="#5FAEB6" filter="url(#f1j8snajah258z)" height="30" style="stroke:#3F6184;stroke-width:1.0;" width="10" x="961.5" y="1415.0449"/><rect fill="#5FAEB6" filter="url(#f1j8snajah258z)" height="61.7031" style="stroke:#3F6184;stroke-width:1.0;" width="10" x="961.5" y="1579.0996"/><rect fill="#5FAEB6" filter="url(#f1j8snajah258z)" height="695.5703" style="stroke:#3F6184;stroke-width:1.0;" width="10" x="1096.5" y="853.1777"/><rect fill="#5FAEB6" filter="url(#f1j8snajah258z)" height="28" style="stroke:#3F6184;stroke-width:1.0;" width="10" x="1101.5" y="1012.584"/><rect fill="#5FAEB6" filter="url(#f1j8snajah258z)" height="28" style="stroke:#3F6184;stroke-width:1.0;" width="10" x="1101.5" y="1172.6387"/><rect fill="#5FAEB6" filter="url(#f1j8snajah258z)" height="265.4063" style="stroke:#3F6184;stroke-width:1.0;" width="10" x="1101.5" y="1245.9902"/><rect fill="#5FAEB6" filter="url(#f1j8snajah258z)" height="28" style="stroke:#3F6184;stroke-width:1.0;" width="10" x="1106.5" y="1289.3418"/><rect fill="#5FAEB6" filter="url(#f1j8snajah258z)" height="28" style="stroke:#3F6184;stroke-width:1.0;" width="10" x="1106.5" y="1483.3965"/><rect fill="#5FAEB6" filter="url(#f1j8snajah258z)" height="61.7031" style="stroke:#3F6184;stroke-width:1.0;" width="10" x="1096.5" y="1579.0996"/><line style="stroke:#3F6184;stroke-width:1.0;stroke-dasharray:5.0,5.0;" x1="33" x2="33" y1="102.0371" y2="1658.8027"/><line style="stroke:#3F6184;stroke-width:1.0;stroke-dasharray:5.0,5.0;" x1="168.5" x2="168.5" y1="102.0371" y2="1658.8027"/><line style="stroke:#3F6184;stroke-width:1.0;stroke-dasharray:5.0,5.0;" x1="283.5" x2="283.5" y1="102.0371" y2="1658.8027"/><line style="stroke:#3F6184;stroke-width:1.0;stroke-dasharray:5.0,5.0;" x1="419.5" x2="419.5" y1="102.0371" y2="1658.8027"/><line style="stroke:#3F6184;stroke-width:1.0;stroke-dasharray:5.0,5.0;" x1="554.5" x2="554.5" y1="102.0371" y2="1658.8027"/><line style="stroke:#3F6184;stroke-width:1.0;stroke-dasharray:5.0,5.0;" x1="681" x2="681" y1="102.0371" y2="1658.8027"/><line style="stroke:#3F6184;stroke-width:1.0;stroke-dasharray:5.0,5.0;" x1="769" x2="769" y1="102.0371" y2="1658.8027"/><line style="stroke:#3F6184;stroke-width:1.0;stroke-dasharray:5.0,5.0;" x1="863" x2="863" y1="102.0371" y2="1658.8027"/><line style="stroke:#3F6184;stroke-width:1.0;stroke-dasharray:5.0,5.0;" x1="966" x2="966" y1="102.0371" y2="1658.8027"/><line style="stroke:#3F6184;stroke-width:1.0;stroke-dasharray:5.0,5.0;" x1="1101.5" x2="1101.5" y1="102.0371" y2="1658.8027"/><rect fill="#3F6184" filter="url(#f1j8snajah258z)" height="55.3965" rx="5" ry="5" style="stroke:#323A45;stroke-width:1.5;" width="53" x="5" y="41.6406"/><text fill="#F6F7F9" font-family="Arial" font-size="18" lengthAdjust="spacing" textLength="39" x="12" y="65.8188">Main</text><text fill="#F6F7F9" font-family="Arial" font-size="18" lengthAdjust="spacing" textLength="0" x="34" y="86.5171"/><rect fill="#3F6184" filter="url(#f1j8snajah258z)" height="55.3965" rx="5" ry="5" style="stroke:#323A45;stroke-width:1.5;" width="102" x="115.5" y="41.6406"/><text fill="#F6F7F9" font-family="Arial" font-size="18" lengthAdjust="spacing" textLength="88" x="122.5" y="65.8188">CustomArg</text><text fill="#F6F7F9" font-family="Arial" font-size="18" lengthAdjust="spacing" textLength="53" x="140" y="86.5171">Parser</text><rect fill="#3F6184" filter="url(#f1j8snajah258z)" height="55.3965" rx="5" ry="5" style="stroke:#323A45;stroke-width:1.5;" width="101" x="231.5" y="41.6406"/><text fill="#F6F7F9" font-family="Arial" font-size="18" lengthAdjust="spacing" textLength="87" x="238.5" y="65.8188">TweetSent</text><text fill="#F6F7F9" font-family="Arial" font-size="18" lengthAdjust="spacing" textLength="38" x="263" y="86.5171">Data</text><rect fill="#3F6184" filter="url(#f1j8snajah258z)" height="55.3965" rx="5" ry="5" style="stroke:#323A45;stroke-width:1.5;" width="142" x="346.5" y="41.6406"/><text fill="#F6F7F9" font-family="Arial" font-size="18" lengthAdjust="spacing" textLength="128" x="353.5" y="65.8188">ModuleInterface</text><text fill="#F6F7F9" font-family="Arial" font-size="18" lengthAdjust="spacing" textLength="85" x="375" y="86.5171">Arguments</text><rect fill="#3F6184" filter="url(#f1j8snajah258z)" height="55.3965" rx="5" ry="5" style="stroke:#323A45;stroke-width:1.5;" width="101" x="502.5" y="41.6406"/><text fill="#F6F7F9" font-family="Arial" font-size="18" lengthAdjust="spacing" textLength="87" x="509.5" y="65.8188">TweetSent</text><text fill="#F6F7F9" font-family="Arial" font-size="18" lengthAdjust="spacing" textLength="59" x="523.5" y="86.5171">Module</text><rect fill="#3F6184" filter="url(#f1j8snajah258z)" height="55.3965" rx="5" ry="5" style="stroke:#323A45;stroke-width:1.5;" width="86" x="636" y="41.6406"/><text fill="#F6F7F9" font-family="Arial" font-size="18" lengthAdjust="spacing" textLength="36" x="661" y="65.8188">Auto</text><text fill="#F6F7F9" font-family="Arial" font-size="18" lengthAdjust="spacing" textLength="72" x="643" y="86.5171">tokenizer</text><rect fill="#3F6184" filter="url(#f1j8snajah258z)" height="55.3965" rx="5" ry="5" style="stroke:#323A45;stroke-width:1.5;" width="62" x="736" y="41.6406"/><text fill="#F6F7F9" font-family="Arial" font-size="18" lengthAdjust="spacing" textLength="36" x="749" y="65.8188">Auto</text><text fill="#F6F7F9" font-family="Arial" font-size="18" lengthAdjust="spacing" textLength="48" x="743" y="86.5171">model</text><rect fill="#3F6184" filter="url(#f1j8snajah258z)" height="55.3965" rx="5" ry="5" style="stroke:#323A45;stroke-width:1.5;" width="99" x="812" y="41.6406"/><text fill="#F6F7F9" font-family="Arial" font-size="18" lengthAdjust="spacing" textLength="58" x="832.5" y="65.8188">Trainer</text><text fill="#F6F7F9" font-family="Arial" font-size="18" lengthAdjust="spacing" textLength="85" x="819" y="86.5171">Arguments</text><rect fill="#3F6184" filter="url(#f1j8snajah258z)" height="55.3965" rx="5" ry="5" style="stroke:#323A45;stroke-width:1.5;" width="79" x="925" y="41.6406"/><text fill="#F6F7F9" font-family="Arial" font-size="18" lengthAdjust="spacing" textLength="50" x="939.5" y="65.8188">Single</text><text fill="#F6F7F9" font-family="Arial" font-size="18" lengthAdjust="spacing" textLength="65" x="932" y="86.5171">Process</text><rect fill="#3F6184" filter="url(#f1j8snajah258z)" height="55.3965" rx="5" ry="5" style="stroke:#323A45;stroke-width:1.5;" width="72" x="1063.5" y="41.6406"/><text fill="#F6F7F9" font-family="Arial" font-size="18" lengthAdjust="spacing" textLength="58" x="1070.5" y="65.8188">Trainer</text><text fill="#F6F7F9" font-family="Arial" font-size="18" lengthAdjust="spacing" textLength="0" x="1102" y="86.5171"/><rect fill="#5FAEB6" filter="url(#f1j8snajah258z)" height="1528.7656" style="stroke:#3F6184;stroke-width:1.0;" width="10" x="28.5" y="112.0371"/><rect fill="#5FAEB6" filter="url(#f1j8snajah258z)" height="60.7031" style="stroke:#3F6184;stroke-width:1.0;" width="10" x="163.5" y="150.7402"/><rect fill="#5FAEB6" filter="url(#f1j8snajah258z)" height="94.4063" style="stroke:#3F6184;stroke-width:1.0;" width="10" x="279" y="241.7949"/><rect fill="#5FAEB6" filter="url(#f1j8snajah258z)" height="61.7031" style="stroke:#3F6184;stroke-width:1.0;" width="10" x="279" y="1579.0996"/><rect fill="#5FAEB6" filter="url(#f1j8snajah258z)" height="30.3516" style="stroke:#3F6184;stroke-width:1.0;" width="10" x="414.5" y="366.5527"/><rect fill="#5FAEB6" filter="url(#f1j8snajah258z)" height="225.1094" style="stroke:#3F6184;stroke-width:1.0;" width="10" x="550" y="443.6074"/><rect fill="#5FAEB6" filter="url(#f1j8snajah258z)" height="28" style="stroke:#3F6184;stroke-width:1.0;" width="10" x="555" y="542.6621"/><rect fill="#5FAEB6" filter="url(#f1j8snajah258z)" height="30" style="stroke:#3F6184;stroke-width:1.0;" width="10" x="550" y="883.5293"/><rect fill="#5FAEB6" filter="url(#f1j8snajah258z)" height="30.3516" style="stroke:#3F6184;stroke-width:1.0;" width="10" x="550" y="943.8809"/><rect fill="#5FAEB6" filter="url(#f1j8snajah258z)" height="30" style="stroke:#3F6184;stroke-width:1.0;" width="10" x="550" y="1354.6934"/><rect fill="#5FAEB6" filter="url(#f1j8snajah258z)" height="61.7031" style="stroke:#3F6184;stroke-width:1.0;" width="10" x="550" y="1579.0996"/><rect fill="#5FAEB6" filter="url(#f1j8snajah258z)" height="30.3516" style="stroke:#3F6184;stroke-width:1.0;" width="10" x="676" y="473.959"/><rect fill="#5FAEB6" filter="url(#f1j8snajah258z)" height="61.7031" style="stroke:#3F6184;stroke-width:1.0;" width="10" x="676" y="1579.0996"/><rect fill="#5FAEB6" filter="url(#f1j8snajah258z)" height="30.3516" style="stroke:#3F6184;stroke-width:1.0;" width="10" x="764" y="608.0137"/><rect fill="#5FAEB6" filter="url(#f1j8snajah258z)" height="61.7031" style="stroke:#3F6184;stroke-width:1.0;" width="10" x="764" y="1579.0996"/><rect fill="#5FAEB6" filter="url(#f1j8snajah258z)" height="30.3516" style="stroke:#3F6184;stroke-width:1.0;" width="10" x="858.5" y="699.0684"/><rect fill="#5FAEB6" filter="url(#f1j8snajah258z)" height="30.3516" style="stroke:#3F6184;stroke-width:1.0;" width="10" x="961.5" y="759.7715"/><rect fill="#5FAEB6" filter="url(#f1j8snajah258z)" height="30" style="stroke:#3F6184;stroke-width:1.0;" width="10" x="961.5" y="1082.9355"/><rect fill="#5FAEB6" filter="url(#f1j8snajah258z)" height="30" style="stroke:#3F6184;stroke-width:1.0;" width="10" x="961.5" y="1415.0449"/><rect fill="#5FAEB6" filter="url(#f1j8snajah258z)" height="61.7031" style="stroke:#3F6184;stroke-width:1.0;" width="10" x="961.5" y="1579.0996"/><rect fill="#5FAEB6" filter="url(#f1j8snajah258z)" height="695.5703" style="stroke:#3F6184;stroke-width:1.0;" width="10" x="1096.5" y="853.1777"/><rect fill="#5FAEB6" filter="url(#f1j8snajah258z)" height="28" style="stroke:#3F6184;stroke-width:1.0;" width="10" x="1101.5" y="1012.584"/><rect fill="#5FAEB6" filter="url(#f1j8snajah258z)" height="28" style="stroke:#3F6184;stroke-width:1.0;" width="10" x="1101.5" y="1172.6387"/><rect fill="#5FAEB6" filter="url(#f1j8snajah258z)" height="265.4063" style="stroke:#3F6184;stroke-width:1.0;" width="10" x="1101.5" y="1245.9902"/><rect fill="#5FAEB6" filter="url(#f1j8snajah258z)" height="28" style="stroke:#3F6184;stroke-width:1.0;" width="10" x="1106.5" y="1289.3418"/><rect fill="#5FAEB6" filter="url(#f1j8snajah258z)" height="28" style="stroke:#3F6184;stroke-width:1.0;" width="10" x="1106.5" y="1483.3965"/><rect fill="#5FAEB6" filter="url(#f1j8snajah258z)" height="61.7031" style="stroke:#3F6184;stroke-width:1.0;" width="10" x="1096.5" y="1579.0996"/><polygon fill="#323A45" points="151.5,146.7402,161.5,150.7402,151.5,154.7402,155.5,150.7402" style="stroke:#323A45;stroke-width:1.0;"/><line style="stroke:#323A45;stroke-width:2.0;" x1="38.5" x2="157.5" y1="150.7402" y2="150.7402"/><text fill="#000000" font-family="sans-serif" font-size="13" lengthAdjust="spacing" text-decoration="underline" textLength="17" x="45.5" y="129.5322">init</text><text fill="#000000" font-family="sans-serif" font-size="13" lengthAdjust="spacing" textLength="58" x="62.5" y="129.5322">(argparse.</text><text fill="#000000" font-family="sans-serif" font-size="13" lengthAdjust="spacing" textLength="106" x="45.5" y="145.8838">ArgumentParser())</text><polygon fill="#323A45" points="151.5,177.0918,161.5,181.0918,151.5,185.0918,155.5,181.0918" style="stroke:#323A45;stroke-width:1.0;"/><line style="stroke:#323A45;stroke-width:2.0;" x1="38.5" x2="157.5" y1="181.0918" y2="181.0918"/><text fill="#000000" font-family="sans-serif" font-size="13" lengthAdjust="spacing" textLength="85" x="45.5" y="176.2354">merge_config()</text><polygon fill="#323A45" points="49.5,207.4434,39.5,211.4434,49.5,215.4434,45.5,211.4434" style="stroke:#323A45;stroke-width:1.0;"/><line style="stroke:#323A45;stroke-width:2.0;stroke-dasharray:2.0,2.0;" x1="43.5" x2="167.5" y1="211.4434" y2="211.4434"/><text fill="#000000" font-family="sans-serif" font-size="13" lengthAdjust="spacing" textLength="34" x="55.5" y="206.5869">config</text><polygon fill="#323A45" points="267,237.7949,277,241.7949,267,245.7949,271,241.7949" style="stroke:#323A45;stroke-width:1.0;"/><line style="stroke:#323A45;stroke-width:2.0;" x1="38.5" x2="273" y1="241.7949" y2="241.7949"/><text fill="#000000" font-family="sans-serif" font-size="13" lengthAdjust="spacing" text-decoration="underline" textLength="17" x="45.5" y="236.9385">init</text><text fill="#000000" font-family="sans-serif" font-size="13" lengthAdjust="spacing" textLength="52" x="62.5" y="236.9385">(**config)</text><rect fill="#FFFFFF" filter="url(#f1j8snajah258z)" height="59.0547" style="stroke:#000000;stroke-width:2.0;" width="107" x="228.5" y="249.7949"/><polygon fill="#EEEEEE" points="228.5,249.7949,290.5,249.7949,290.5,257.7949,280.5,267.7949,228.5,267.7949,228.5,249.7949" style="stroke:#000000;stroke-width:2.0;"/><text fill="#000000" font-family="sans-serif" font-size="13" font-weight="bold" lengthAdjust="spacing" textLength="17" x="241.5" y="265.29">ref</text><text fill="#000000" font-family="sans-serif" font-size="13" lengthAdjust="spacing" textLength="97" x="235.5" y="285.29">Tweet Sentiment</text><text fill="#000000" font-family="sans-serif" font-size="13" lengthAdjust="spacing" textLength="96" x="235.5" y="301.6416">Data Processing</text><polygon fill="#323A45" points="49.5,332.2012,39.5,336.2012,49.5,340.2012,45.5,336.2012" style="stroke:#323A45;stroke-width:1.0;"/><line style="stroke:#323A45;stroke-width:2.0;stroke-dasharray:2.0,2.0;" x1="43.5" x2="283" y1="336.2012" y2="336.2012"/><text fill="#000000" font-family="sans-serif" font-size="13" lengthAdjust="spacing" textLength="81" x="55.5" y="331.3447">data_interface</text><polygon fill="#323A45" points="402.5,362.5527,412.5,366.5527,402.5,370.5527,406.5,366.5527" style="stroke:#323A45;stroke-width:1.0;"/><line style="stroke:#323A45;stroke-width:2.0;" x1="38.5" x2="408.5" y1="366.5527" y2="366.5527"/><text fill="#000000" font-family="sans-serif" font-size="13" lengthAdjust="spacing" textLength="206" x="45.5" y="361.6963">ModuleInterfaceArguments(**config)</text><polygon fill="#323A45" points="49.5,392.9043,39.5,396.9043,49.5,400.9043,45.5,396.9043" style="stroke:#323A45;stroke-width:1.0;"/><line style="stroke:#323A45;stroke-width:2.0;stroke-dasharray:2.0,2.0;" x1="43.5" x2="418.5" y1="396.9043" y2="396.9043"/><text fill="#000000" font-family="sans-serif" font-size="13" lengthAdjust="spacing" textLength="74" x="55.5" y="392.0479">module_args</text><polygon fill="#323A45" points="538,439.6074,548,443.6074,538,447.6074,542,443.6074" style="stroke:#323A45;stroke-width:1.0;"/><line style="stroke:#323A45;stroke-width:2.0;" x1="38.5" x2="544" y1="443.6074" y2="443.6074"/><text fill="#000000" font-family="sans-serif" font-size="13" lengthAdjust="spacing" text-decoration="underline" textLength="17" x="45.5" y="422.3994">init</text><text fill="#000000" font-family="sans-serif" font-size="13" lengthAdjust="spacing" textLength="89" x="62.5" y="422.3994">(data_interface,</text><text fill="#000000" font-family="sans-serif" font-size="13" lengthAdjust="spacing" textLength="78" x="45.5" y="438.751">module_args)</text><polygon fill="#323A45" points="664,469.959,674,473.959,664,477.959,668,473.959" style="stroke:#323A45;stroke-width:1.0;"/><line style="stroke:#323A45;stroke-width:2.0;" x1="560" x2="670" y1="473.959" y2="473.959"/><text fill="#000000" font-family="sans-serif" font-size="13" lengthAdjust="spacing" textLength="97" x="567" y="469.1025">from_pretrained()</text><polygon fill="#323A45" points="571,500.3105,561,504.3105,571,508.3105,567,504.3105" style="stroke:#323A45;stroke-width:1.0;"/><line style="stroke:#323A45;stroke-width:2.0;stroke-dasharray:2.0,2.0;" x1="565" x2="680" y1="504.3105" y2="504.3105"/><text fill="#000000" font-family="sans-serif" font-size="13" lengthAdjust="spacing" textLength="53" x="577" y="499.4541">tokenizer</text><line style="stroke:#323A45;stroke-width:2.0;" x1="565" x2="607" y1="534.6621" y2="534.6621"/><line style="stroke:#323A45;stroke-width:2.0;" x1="607" x2="607" y1="534.6621" y2="547.6621"/><line style="stroke:#323A45;stroke-width:2.0;" x1="566" x2="607" y1="547.6621" y2="547.6621"/><polygon fill="#323A45" points="576,543.6621,566,547.6621,576,551.6621,572,547.6621" style="stroke:#323A45;stroke-width:1.0;"/><text fill="#000000" font-family="sans-serif" font-size="13" lengthAdjust="spacing" textLength="37" x="572" y="529.8057">reset()</text><polygon fill="#323A45" points="752,604.0137,762,608.0137,752,612.0137,756,608.0137" style="stroke:#323A45;stroke-width:1.0;"/><line style="stroke:#323A45;stroke-width:2.0;" x1="560" x2="758" y1="608.0137" y2="608.0137"/><text fill="#000000" font-family="sans-serif" font-size="13" lengthAdjust="spacing" textLength="97" x="567" y="603.1572">from_pretrained()</text><polygon fill="#323A45" points="571,634.3652,561,638.3652,571,642.3652,567,638.3652" style="stroke:#323A45;stroke-width:1.0;"/><line style="stroke:#323A45;stroke-width:2.0;stroke-dasharray:2.0,2.0;" x1="565" x2="768" y1="638.3652" y2="638.3652"/><text fill="#000000" font-family="sans-serif" font-size="13" lengthAdjust="spacing" textLength="35" x="577" y="633.5088">model</text><polygon fill="#323A45" points="49.5,664.7168,39.5,668.7168,49.5,672.7168,45.5,668.7168" style="stroke:#323A45;stroke-width:1.0;"/><line style="stroke:#323A45;stroke-width:2.0;stroke-dasharray:2.0,2.0;" x1="43.5" x2="554" y1="668.7168" y2="668.7168"/><text fill="#000000" font-family="sans-serif" font-size="13" lengthAdjust="spacing" textLength="98" x="55.5" y="663.8604">module_interface</text><polygon fill="#323A45" points="846.5,695.0684,856.5,699.0684,846.5,703.0684,850.5,699.0684" style="stroke:#323A45;stroke-width:1.0;"/><line style="stroke:#323A45;stroke-width:2.0;" x1="38.5" x2="852.5" y1="699.0684" y2="699.0684"/><text fill="#000000" font-family="sans-serif" font-size="13" lengthAdjust="spacing" textLength="154" x="45.5" y="694.2119">TrainerArguments(**config)</text><polygon fill="#323A45" points="49.5,725.4199,39.5,729.4199,49.5,733.4199,45.5,729.4199" style="stroke:#323A45;stroke-width:1.0;"/><line style="stroke:#323A45;stroke-width:2.0;stroke-dasharray:2.0,2.0;" x1="43.5" x2="862.5" y1="729.4199" y2="729.4199"/><text fill="#000000" font-family="sans-serif" font-size="13" lengthAdjust="spacing" textLength="68" x="55.5" y="724.5635">trainer_args</text><polygon fill="#323A45" points="949.5,755.7715,959.5,759.7715,949.5,763.7715,953.5,759.7715" style="stroke:#323A45;stroke-width:1.0;"/><line style="stroke:#323A45;stroke-width:2.0;" x1="38.5" x2="955.5" y1="759.7715" y2="759.7715"/><text fill="#000000" font-family="sans-serif" font-size="13" lengthAdjust="spacing" text-decoration="underline" textLength="17" x="45.5" y="754.915">init</text><text fill="#000000" font-family="sans-serif" font-size="13" lengthAdjust="spacing" textLength="8" x="62.5" y="754.915">()</text><polygon fill="#323A45" points="49.5,786.123,39.5,790.123,49.5,794.123,45.5,790.123" style="stroke:#323A45;stroke-width:1.0;"/><line style="stroke:#323A45;stroke-width:2.0;" x1="43.5" x2="965.5" y1="790.123" y2="790.123"/><text fill="#000000" font-family="sans-serif" font-size="13" lengthAdjust="spacing" textLength="92" x="55.5" y="785.2666">trainer_backend</text><polygon fill="#323A45" points="1084.5,849.1777,1094.5,853.1777,1084.5,857.1777,1088.5,853.1777" style="stroke:#323A45;stroke-width:1.0;"/><line style="stroke:#323A45;stroke-width:2.0;" x1="38.5" x2="1090.5" y1="853.1777" y2="853.1777"/><text fill="#000000" font-family="sans-serif" font-size="13" lengthAdjust="spacing" text-decoration="underline" textLength="17" x="45.5" y="815.6182">init</text><text fill="#000000" font-family="sans-serif" font-size="13" lengthAdjust="spacing" textLength="106" x="62.5" y="815.6182">(module_interface,</text><text fill="#000000" font-family="sans-serif" font-size="13" lengthAdjust="spacing" textLength="172" x="45.5" y="831.9697">trainer_backend, trainer_args,</text><text fill="#000000" font-family="sans-serif" font-size="13" lengthAdjust="spacing" textLength="135" x="45.5" y="848.3213">[optional] checkpointer)</text><polygon fill="#323A45" points="571,879.5293,561,883.5293,571,887.5293,567,883.5293" style="stroke:#323A45;stroke-width:1.0;"/><line style="stroke:#323A45;stroke-width:2.0;" x1="565" x2="1095.5" y1="883.5293" y2="883.5293"/><text fill="#000000" font-family="sans-serif" font-size="13" lengthAdjust="spacing" textLength="55" x="577" y="878.6729">to(device)</text><polygon fill="#323A45" points="571,939.8809,561,943.8809,571,947.8809,567,943.8809" style="stroke:#323A45;stroke-width:1.0;"/><line style="stroke:#323A45;stroke-width:2.0;" x1="565" x2="1095.5" y1="943.8809" y2="943.8809"/><text fill="#000000" font-family="sans-serif" font-size="13" lengthAdjust="spacing" textLength="413" x="577" y="939.0244">get_optimizers_schedulers(estimated_global_steps_per_epoch,epochs)</text><polygon fill="#323A45" points="1084.5,970.2324,1094.5,974.2324,1084.5,978.2324,1088.5,974.2324" style="stroke:#323A45;stroke-width:1.0;"/><line style="stroke:#323A45;stroke-width:2.0;" x1="555" x2="1090.5" y1="974.2324" y2="974.2324"/><text fill="#000000" font-family="sans-serif" font-size="13" lengthAdjust="spacing" textLength="131" x="562" y="969.376">optimizers, schedulers</text><line style="stroke:#323A45;stroke-width:2.0;" x1="1111.5" x2="1153.5" y1="1004.584" y2="1004.584"/><line style="stroke:#323A45;stroke-width:2.0;" x1="1153.5" x2="1153.5" y1="1004.584" y2="1017.584"/><line style="stroke:#323A45;stroke-width:2.0;" x1="1112.5" x2="1153.5" y1="1017.584" y2="1017.584"/><polygon fill="#323A45" points="1122.5,1013.584,1112.5,1017.584,1122.5,1021.584,1118.5,1017.584" style="stroke:#323A45;stroke-width:1.0;"/><text fill="#000000" font-family="sans-serif" font-size="13" lengthAdjust="spacing" textLength="157" x="1118.5" y="999.7275">get_trainer_backend_args()</text><polygon fill="#323A45" points="982.5,1078.9355,972.5,1082.9355,982.5,1086.9355,978.5,1082.9355" style="stroke:#323A45;stroke-width:1.0;"/><line style="stroke:#323A45;stroke-width:2.0;" x1="976.5" x2="1095.5" y1="1082.9355" y2="1082.9355"/><text fill="#000000" font-family="sans-serif" font-size="13" lengthAdjust="spacing" textLength="106" x="988.5" y="1078.0791">init(backend_args)</text><path d="M781,1065.584 L781,1081.584 A5,5 0 0 0 786,1086.584 L947,1086.584 A5,5 0 0 0 952,1081.584 L952,1070.584 L942,1060.584 L786,1060.584 A5,5 0 0 0 781,1065.584 " fill="#FBFB77" filter="url(#f1j8snajah258z)" style="stroke:#A80036;stroke-width:1.0;"/><path d="M942,1060.584 L942,1068.084 A2.5,2.5 0 0 0 944.5,1070.584 L952,1070.584 L942,1060.584 " fill="#FBFB77" style="stroke:#A80036;stroke-width:1.0;"/><text fill="#000000" font-family="sans-serif" font-size="13" lengthAdjust="spacing" textLength="150" x="787" y="1079.0791">model is passed to trainer</text><line style="stroke:#323A45;stroke-width:2.0;" x1="1111.5" x2="1153.5" y1="1164.6387" y2="1164.6387"/><line style="stroke:#323A45;stroke-width:2.0;" x1="1153.5" x2="1153.5" y1="1164.6387" y2="1177.6387"/><line style="stroke:#323A45;stroke-width:2.0;" x1="1112.5" x2="1153.5" y1="1177.6387" y2="1177.6387"/><polygon fill="#323A45" points="1122.5,1173.6387,1112.5,1177.6387,1122.5,1181.6387,1118.5,1177.6387" style="stroke:#323A45;stroke-width:1.0;"/><text fill="#000000" font-family="sans-serif" font-size="13" lengthAdjust="spacing" textLength="102" x="1118.5" y="1143.4307">init_checkpointer(</text><text fill="#000000" font-family="sans-serif" font-size="13" lengthAdjust="spacing" textLength="78" x="1118.5" y="1159.7822">checkpointer)</text><path d="M796,1145.6113 L796,1161.6113 A5,5 0 0 0 801,1166.6113 L1082,1166.6113 A5,5 0 0 0 1087,1161.6113 L1087,1150.6113 L1077,1140.6113 L801,1140.6113 A5,5 0 0 0 796,1145.6113 " fill="#FBFB77" filter="url(#f1j8snajah258z)" style="stroke:#A80036;stroke-width:1.0;"/><path d="M1077,1140.6113 L1077,1148.1113 A2.5,2.5 0 0 0 1079.5,1150.6113 L1087,1150.6113 L1077,1140.6113 " fill="#FBFB77" style="stroke:#A80036;stroke-width:1.0;"/><text fill="#000000" font-family="sans-serif" font-size="13" lengthAdjust="spacing" textLength="270" x="802" y="1159.1064">creates default if none is passed in constructor</text><line style="stroke:#323A45;stroke-width:2.0;" x1="1106.5" x2="1153.5" y1="1232.9902" y2="1232.9902"/><line style="stroke:#323A45;stroke-width:2.0;" x1="1153.5" x2="1153.5" y1="1232.9902" y2="1245.9902"/><line style="stroke:#323A45;stroke-width:2.0;" x1="1112.5" x2="1153.5" y1="1245.9902" y2="1245.9902"/><polygon fill="#323A45" points="1122.5,1241.9902,1112.5,1245.9902,1122.5,1249.9902,1118.5,1245.9902" style="stroke:#323A45;stroke-width:1.0;"/><text fill="#000000" font-family="sans-serif" font-size="13" lengthAdjust="spacing" textLength="102" x="1118.5" y="1228.1338">load_checkpoint()</text><line style="stroke:#323A45;stroke-width:2.0;" x1="1116.5" x2="1158.5" y1="1281.3418" y2="1281.3418"/><line style="stroke:#323A45;stroke-width:2.0;" x1="1158.5" x2="1158.5" y1="1281.3418" y2="1294.3418"/><line style="stroke:#323A45;stroke-width:2.0;" x1="1117.5" x2="1158.5" y1="1294.3418" y2="1294.3418"/><polygon fill="#323A45" points="1127.5,1290.3418,1117.5,1294.3418,1127.5,1298.3418,1123.5,1294.3418" style="stroke:#323A45;stroke-width:1.0;"/><text fill="#000000" font-family="sans-serif" font-size="13" lengthAdjust="spacing" textLength="110" x="1123.5" y="1276.4854">checkpointer.load()</text><polygon fill="#323A45" points="571,1350.6934,561,1354.6934,571,1358.6934,567,1354.6934" style="stroke:#323A45;stroke-width:1.0;"/><line style="stroke:#323A45;stroke-width:2.0;" x1="565" x2="1100.5" y1="1354.6934" y2="1354.6934"/><text fill="#000000" font-family="sans-serif" font-size="13" lengthAdjust="spacing" textLength="83" x="577" y="1349.8369">update_state()</text><polygon fill="#323A45" points="982.5,1411.0449,972.5,1415.0449,982.5,1419.0449,978.5,1415.0449" style="stroke:#323A45;stroke-width:1.0;"/><line style="stroke:#323A45;stroke-width:2.0;" x1="976.5" x2="1100.5" y1="1415.0449" y2="1415.0449"/><text fill="#000000" font-family="sans-serif" font-size="13" lengthAdjust="spacing" textLength="83" x="988.5" y="1410.1885">update_state()</text><line style="stroke:#323A45;stroke-width:2.0;" x1="1116.5" x2="1158.5" y1="1475.3965" y2="1475.3965"/><line style="stroke:#323A45;stroke-width:2.0;" x1="1158.5" x2="1158.5" y1="1475.3965" y2="1488.3965"/><line style="stroke:#323A45;stroke-width:2.0;" x1="1117.5" x2="1158.5" y1="1488.3965" y2="1488.3965"/><polygon fill="#323A45" points="1127.5,1484.3965,1117.5,1488.3965,1127.5,1492.3965,1123.5,1488.3965" style="stroke:#323A45;stroke-width:1.0;"/><text fill="#000000" font-family="sans-serif" font-size="13" lengthAdjust="spacing" textLength="83" x="1123.5" y="1470.54">update_state()</text><polygon fill="#323A45" points="49.5,1544.748,39.5,1548.748,49.5,1552.748,45.5,1548.748" style="stroke:#323A45;stroke-width:1.0;"/><line style="stroke:#323A45;stroke-width:2.0;" x1="43.5" x2="1100.5" y1="1548.748" y2="1548.748"/><text fill="#000000" font-family="sans-serif" font-size="13" lengthAdjust="spacing" textLength="36" x="55.5" y="1543.8916">trainer</text><polygon fill="#323A45" points="1084.5,1575.0996,1094.5,1579.0996,1084.5,1583.0996,1088.5,1579.0996" style="stroke:#323A45;stroke-width:1.0;"/><line style="stroke:#323A45;stroke-width:2.0;" x1="38.5" x2="1090.5" y1="1579.0996" y2="1579.0996"/><text fill="#000000" font-family="sans-serif" font-size="13" lengthAdjust="spacing" textLength="33" x="45.5" y="1574.2432">train()</text><rect fill="#FFFFFF" filter="url(#f1j8snajah258z)" height="42.7031" style="stroke:#000000;stroke-width:2.0;" width="910" x="228.5" y="1587.0996"/><polygon fill="#EEEEEE" points="228.5,1587.0996,290.5,1587.0996,290.5,1595.0996,280.5,1605.0996,228.5,1605.0996,228.5,1587.0996" style="stroke:#000000;stroke-width:2.0;"/><text fill="#000000" font-family="sans-serif" font-size="13" font-weight="bold" lengthAdjust="spacing" textLength="17" x="241.5" y="1602.5947">ref</text><text fill="#000000" font-family="sans-serif" font-size="13" lengthAdjust="spacing" textLength="100" x="635.5" y="1622.5947">Training Lifecycle</text><polygon fill="#323A45" points="44.5,1636.8027,34.5,1640.8027,44.5,1644.8027,40.5,1640.8027" style="stroke:#323A45;stroke-width:1.0;"/><line style="stroke:#323A45;stroke-width:2.0;stroke-dasharray:2.0,2.0;" x1="38.5" x2="1100.5" y1="1640.8027" y2="1640.8027"/><!--MD5=[baff81a6d35e6b05931ca534b1ed5d1b]
@startuml classification_train

'Diagram visualization params
skinparam RoundCorner 10
skinparam maxmessagesize 180

skinparam sequence {
    ArrowColor #323a45
    ArrowThickness 2
    LifeLineBorderColor #3f6184
    LifeLineBackgroundColor #5faeb6

    ParticipantBorderColor #323a45
    ParticipantBackgroundColor #3f6184
    ParticipantFontName Arial
    ParticipantFontSize 18
    ParticipantFontColor #f6f7f9
}

hide footbox
title Tweet Sentiment Training

participant "Main\n" as main
participant "CustomArg\nParser" as AP
participant "TweetSent\nData" as Dmod
participant "ModuleInterface\nArguments" as TmodArgs
participant "TweetSent\nModule" as Tmod
participant "Auto\ntokenizer" as Tok 
participant "Auto\nmodel" as Model
participant "Trainer\nArguments" as TmanArgs
participant "Single\nProcess" as SP
participant "Trainer\n" as Tman

activate main

main -> AP: __init__(argparse. ArgumentParser())
activate AP
main -> AP: merge_config()
AP - -> main: config
deactivate AP

main -> Dmod: __init__(**config)
activate Dmod
ref over Dmod : Tweet Sentiment\nData Processing
Dmod - -> main: data_interface
deactivate Dmod

main -> TmodArgs: ModuleInterfaceArguments(**config)
activate TmodArgs
TmodArgs - -> main: module_args
deactivate TmodArgs

main -> Tmod: __init__(data_interface, module_args)
activate Tmod
Tmod -> Tok: from_pretrained()
activate Tok
Tok - -> Tmod: tokenizer
deactivate Tok
Tmod -> Tmod: reset()
activate Tmod
deactivate Tmod
Tmod -> Model: from_pretrained()
activate Model
Model - -> Tmod: model
deactivate Model
Tmod - -> main: module_interface
deactivate Tmod

main -> TmanArgs: TrainerArguments(**config)
activate TmanArgs
TmanArgs - -> main: trainer_args
deactivate TmanArgs

main -> SP: __init__()
activate SP
SP -> main: trainer_backend
deactivate SP

main -> Tman: __init__(module_interface, trainer_backend, trainer_args, [optional] checkpointer)
activate Tman
Tman -> Tmod: to(device)
activate Tmod
deactivate Tmod
Tman -> Tmod: get_optimizers_schedulers(estimated_global_steps_per_epoch,epochs)
activate Tmod
Tmod -> Tman: optimizers, schedulers
deactivate Tmod
Tman -> Tman: get_trainer_backend_args()
activate Tman
deactivate Tman
Tman -> SP: init(backend_args)
note top: model is passed to trainer
activate SP
deactivate SP
Tman -> Tman: init_checkpointer( checkpointer)
activate Tman
deactivate Tman
note left: creates default if none is passed in constructor
Tman -> Tman: load_checkpoint()
activate Tman
Tman -> Tman: checkpointer.load()
activate Tman
deactivate Tman
Tman -> Tmod: update_state()
activate Tmod
deactivate Tmod
Tman -> SP: update_state()
activate SP
deactivate SP
Tman -> Tman: update_state()
activate Tman
deactivate Tman
deactivate Tman
Tman -> main: trainer
deactivate Tman

main -> Tman: train()
activate Dmod
activate Tmod
activate Tok
activate Model
activate SP
activate Tman
ref over Dmod, Tmod, Tok, Model, SP, Tman: Training Lifecycle
Tman - -> main
deactivate Dmod
deactivate Tmod
deactivate Tok
deactivate Model
deactivate SP
deactivate Tman

deactivate main
@enduml

@startuml classification_train

skinparam RoundCorner 10
skinparam maxmessagesize 180

skinparam sequence {
    ArrowColor #323a45
    ArrowThickness 2
    LifeLineBorderColor #3f6184
    LifeLineBackgroundColor #5faeb6

    ParticipantBorderColor #323a45
    ParticipantBackgroundColor #3f6184
    ParticipantFontName Arial
    ParticipantFontSize 18
    ParticipantFontColor #f6f7f9
}

hide footbox
title Tweet Sentiment Training

participant "Main\n" as main
participant "CustomArg\nParser" as AP
participant "TweetSent\nData" as Dmod
participant "ModuleInterface\nArguments" as TmodArgs
participant "TweetSent\nModule" as Tmod
participant "Auto\ntokenizer" as Tok 
participant "Auto\nmodel" as Model
participant "Trainer\nArguments" as TmanArgs
participant "Single\nProcess" as SP
participant "Trainer\n" as Tman

activate main

main -> AP: __init__(argparse. ArgumentParser())
activate AP
main -> AP: merge_config()
AP - -> main: config
deactivate AP

main -> Dmod: __init__(**config)
activate Dmod
ref over Dmod : Tweet Sentiment\nData Processing
Dmod - -> main: data_interface
deactivate Dmod

main -> TmodArgs: ModuleInterfaceArguments(**config)
activate TmodArgs
TmodArgs - -> main: module_args
deactivate TmodArgs

main -> Tmod: __init__(data_interface, module_args)
activate Tmod
Tmod -> Tok: from_pretrained()
activate Tok
Tok - -> Tmod: tokenizer
deactivate Tok
Tmod -> Tmod: reset()
activate Tmod
deactivate Tmod
Tmod -> Model: from_pretrained()
activate Model
Model - -> Tmod: model
deactivate Model
Tmod - -> main: module_interface
deactivate Tmod

main -> TmanArgs: TrainerArguments(**config)
activate TmanArgs
TmanArgs - -> main: trainer_args
deactivate TmanArgs

main -> SP: __init__()
activate SP
SP -> main: trainer_backend
deactivate SP

main -> Tman: __init__(module_interface, trainer_backend, trainer_args, [optional] checkpointer)
activate Tman
Tman -> Tmod: to(device)
activate Tmod
deactivate Tmod
Tman -> Tmod: get_optimizers_schedulers(estimated_global_steps_per_epoch,epochs)
activate Tmod
Tmod -> Tman: optimizers, schedulers
deactivate Tmod
Tman -> Tman: get_trainer_backend_args()
activate Tman
deactivate Tman
Tman -> SP: init(backend_args)
note top: model is passed to trainer
activate SP
deactivate SP
Tman -> Tman: init_checkpointer( checkpointer)
activate Tman
deactivate Tman
note left: creates default if none is passed in constructor
Tman -> Tman: load_checkpoint()
activate Tman
Tman -> Tman: checkpointer.load()
activate Tman
deactivate Tman
Tman -> Tmod: update_state()
activate Tmod
deactivate Tmod
Tman -> SP: update_state()
activate SP
deactivate SP
Tman -> Tman: update_state()
activate Tman
deactivate Tman
deactivate Tman
Tman -> main: trainer
deactivate Tman

main -> Tman: train()
activate Dmod
activate Tmod
activate Tok
activate Model
activate SP
activate Tman
ref over Dmod, Tmod, Tok, Model, SP, Tman: Training Lifecycle
Tman - -> main
deactivate Dmod
deactivate Tmod
deactivate Tok
deactivate Model
deactivate SP
deactivate Tman

deactivate main
@enduml

PlantUML version 1.2021.00(Sun Jan 10 07:25:05 CLST 2021)
(GPL source distribution)
Java Runtime: Java(TM) SE Runtime Environment
JVM: Java HotSpot(TM) Client VM
Default Encoding: Cp1252
Language: en
Country: US
--></g></svg>